<?xml version="1.0" standalone="no"?>
<!DOCTYPE svg PUBLIC "-//W3C//DTD SVG 20010904//EN"
 "http://www.w3.org/TR/2001/REC-SVG-20010904/DTD/svg10.dtd">
<svg version="1.0" xmlns="http://www.w3.org/2000/svg"
 width="900.000000pt" height="900.000000pt" viewBox="0 0 900.000000 900.000000"
 preserveAspectRatio="xMidYMid meet">
<metadata>
Created by potrace 1.10, written by Peter Selinger 2001-2011
</metadata>
<g transform="translate(0.000000,900.000000) scale(0.100000,-0.100000)"
fill="currentColor" stroke="none">
<path d="M4735 8081 c-11 -4 -76 -14 -145 -20 -69 -7 -152 -21 -185 -31 -246
-74 -314 -91 -367 -95 -16 -1 -39 -2 -53 -3 -13 -1 -41 -19 -62 -39 -22 -23
-48 -38 -63 -39 -14 0 -49 -1 -77 -2 -52 -2 -53 -3 -53 -32 0 -23 4 -30 20
-30 11 0 23 7 26 15 6 15 24 11 24 -6 0 -14 -59 -69 -74 -69 -7 0 -25 -9 -40
-21 -15 -11 -39 -24 -54 -28 -36 -10 -34 -33 4 -43 41 -10 44 -28 44 -222 l0
-152 -29 -28 c-23 -22 -29 -39 -35 -87 -3 -33 -2 -68 3 -78 6 -11 6 -34 0 -60
-5 -24 -12 -93 -14 -155 -2 -61 -7 -123 -11 -137 -9 -39 10 -66 51 -73 39 -8
42 -13 20 -42 -8 -10 -15 -29 -15 -41 0 -12 -5 -25 -11 -29 -14 -8 -47 32 -51
61 -5 31 -20 24 -42 -20 -12 -22 -30 -41 -41 -43 -11 -3 -24 -10 -28 -18 -11
-19 -46 -18 -69 2 -14 13 -21 14 -32 5 -8 -7 -20 -10 -26 -6 -9 6 -47 -3 -107
-26 -12 -4 -56 -2 -100 5 -83 13 -138 13 -270 1 -58 -5 -83 -12 -83 -21 0 -22
-13 -23 -111 -11 -51 7 -113 9 -137 6 -77 -10 -232 -2 -250 14 -10 7 -39 22
-65 31 -53 20 -97 11 -97 -19 0 -19 4 -19 41 0 38 20 51 12 44 -29 -9 -45 8
-56 99 -59 45 -1 75 -6 74 -12 -4 -12 -219 -10 -227 3 -12 17 -79 52 -100 52
-25 0 -26 6 -6 26 21 22 19 44 -5 44 -11 0 -20 -4 -20 -10 0 -14 -32 -12 -55
4 -11 7 -42 16 -70 20 -27 3 -67 9 -89 12 -27 5 -41 2 -47 -7 -15 -23 -10 -39
11 -39 11 0 20 -5 20 -10 0 -6 11 -15 25 -20 25 -10 32 -24 16 -34 -4 -3 -11
-2 -15 1 -6 7 -54 12 -116 13 -54 0 -140 -12 -140 -21 0 -5 -5 -9 -11 -9 -8 0
-7 5 1 15 10 12 10 19 2 27 -20 20 -168 -87 -210 -152 l-35 -55 21 -38 c12
-21 19 -44 16 -52 -4 -9 3 -16 20 -21 29 -7 62 -65 58 -100 -2 -12 2 -25 8
-29 7 -5 3 -21 -14 -50 -22 -37 -24 -47 -15 -74 6 -17 20 -36 30 -42 15 -8 19
-21 19 -67 0 -32 5 -63 11 -69 8 -8 5 -14 -10 -23 -12 -6 -26 -8 -31 -5 -6 3
-10 2 -10 -3 0 -13 27 -23 44 -16 13 5 56 -31 56 -48 0 -5 -5 -17 -12 -28 -9
-14 -9 -25 -1 -42 6 -13 11 -40 11 -62 0 -21 6 -49 13 -63 11 -20 10 -27 -9
-52 l-22 -30 30 -25 c17 -13 30 -27 30 -29 0 -3 -13 -7 -30 -10 -16 -4 -30
-10 -30 -15 0 -10 51 -33 130 -58 30 -9 70 -23 87 -31 31 -13 36 -12 76 12 24
14 50 25 58 25 8 0 22 9 32 20 19 23 47 26 66 8 10 -11 15 -10 24 3 19 24 42
29 72 13 15 -8 40 -14 56 -14 15 0 31 -4 34 -10 9 -15 -41 -23 -106 -17 -34 3
-62 1 -65 -5 -10 -15 -1 -18 87 -28 46 -5 108 -15 137 -22 42 -9 57 -10 72 0
29 18 42 15 35 -8 -4 -14 -2 -20 9 -20 8 0 21 -3 29 -6 8 -3 21 2 29 10 8 8
32 16 53 18 21 2 40 9 43 17 3 10 -7 12 -47 10 -34 -3 -52 0 -55 8 -7 16 -62
39 -117 48 -50 8 -119 35 -119 47 0 4 15 11 33 16 18 4 36 17 42 30 13 30 44
37 80 18 17 -9 36 -16 43 -16 7 0 20 -4 30 -9 9 -5 28 -14 42 -20 14 -7 34
-17 45 -24 98 -58 113 -65 213 -93 6 -2 12 -10 12 -19 0 -12 -13 -15 -60 -15
-33 0 -60 -4 -60 -9 0 -8 22 -13 110 -24 8 -1 25 -23 38 -48 19 -38 24 -68 29
-180 3 -74 12 -152 19 -174 9 -25 14 -89 14 -170 1 -71 5 -161 9 -200 4 -38 4
-88 -1 -110 -4 -22 -7 -188 -6 -370 3 -404 1 -445 -13 -481 -6 -16 -15 -56
-19 -89 -5 -33 -13 -78 -18 -99 -7 -26 -7 -55 -1 -85 20 -95 26 -168 19 -216
-10 -62 -2 -183 16 -255 8 -30 14 -75 14 -101 0 -25 7 -59 15 -75 9 -19 15
-67 16 -139 2 -70 8 -117 16 -130 7 -11 13 -31 13 -45 1 -14 7 -35 14 -48 18
-34 7 -97 -18 -97 -13 0 -23 13 -34 47 -14 46 -25 58 -36 40 -6 -10 21 -170
33 -197 5 -11 12 -33 16 -49 5 -22 10 -27 25 -23 13 3 20 0 20 -9 0 -8 9 -14
20 -14 11 0 20 7 20 15 0 12 7 14 28 9 52 -12 81 -64 36 -64 -20 0 -17 -37 6
-60 18 -18 11 -38 -10 -25 -5 3 -10 -1 -10 -9 0 -25 48 -30 119 -13 120 29
119 29 131 7 13 -25 65 -27 98 -4 22 15 119 44 150 44 9 0 31 7 47 16 30 15
138 40 325 72 79 14 95 20 92 34 -2 11 6 20 22 24 14 3 28 15 31 25 4 11 20
26 36 34 23 13 27 19 20 33 -5 10 -6 36 -1 62 5 25 9 48 10 53 0 10 50 9 50
-1 0 -4 -5 -13 -11 -19 -15 -15 -1 -73 18 -73 12 0 13 10 8 54 -4 32 -3 62 3
73 8 15 7 27 -4 49 -31 57 -56 156 -49 191 8 46 25 32 25 -21 0 -27 6 -48 15
-56 8 -7 15 -21 15 -31 0 -39 19 -27 28 18 8 37 8 51 -3 63 -19 21 -23 79 -6
89 9 6 13 26 13 60 -1 39 2 51 13 51 8 0 15 -4 15 -10 0 -5 4 -10 9 -10 4 0
11 41 14 91 3 55 12 100 21 114 8 12 12 32 9 45 -4 14 1 29 16 43 12 12 29 33
39 46 16 21 20 22 40 10 18 -11 26 -11 42 -1 24 15 62 16 77 1 5 -5 49 -11 97
-11 47 -1 86 -6 86 -10 0 -22 93 -48 201 -57 63 -6 143 -16 179 -23 55 -11 65
-17 68 -35 2 -13 12 -29 23 -37 11 -8 16 -17 11 -20 -16 -10 -4 -296 14 -313
8 -8 14 -25 14 -37 0 -13 7 -40 16 -61 15 -36 14 -38 -6 -57 -17 -16 -20 -26
-14 -47 4 -14 8 -51 9 -81 2 -72 12 -100 35 -100 28 0 34 -17 11 -30 -23 -12
-21 -45 7 -116 16 -41 17 -41 57 -36 27 3 47 13 62 31 20 24 27 26 108 26 86
1 118 -6 96 -19 -6 -4 -11 -11 -11 -15 0 -13 62 -20 87 -10 13 5 46 4 77 -2
43 -8 62 -7 90 5 24 10 87 16 200 20 90 2 174 9 185 15 11 6 29 11 41 11 12 0
34 6 48 13 84 43 119 57 137 55 14 -2 19 3 20 22 0 18 5 25 20 25 12 0 20 -7
20 -17 0 -32 13 -29 19 6 4 18 13 39 21 46 10 9 12 17 5 30 -7 13 -4 20 16 29
15 6 33 30 45 58 17 40 18 51 8 68 -7 11 -18 53 -25 94 -11 68 -10 75 8 93 21
21 15 46 -8 27 -14 -12 -18 -7 -15 23 1 9 -3 19 -9 23 -15 9 -12 36 5 56 9 9
17 32 19 50 2 19 8 47 14 62 22 52 10 111 -19 102 -12 -4 -22 1 -29 15 -14 26
-19 22 -30 -24 -7 -31 -5 -38 11 -47 16 -8 19 -21 19 -79 0 -53 -3 -70 -14
-70 -20 0 -39 129 -37 249 1 51 -4 81 -14 97 -17 27 -19 44 -5 44 6 0 10 -9
10 -21 0 -12 5 -19 13 -16 6 2 12 17 12 33 1 37 13 74 32 96 15 17 14 38 -9
126 -12 48 -21 52 -44 17 -9 -14 -23 -25 -30 -25 -19 0 -17 105 3 121 8 8 11
20 6 33 -10 31 -4 138 8 153 17 20 9 383 -9 406 -5 7 -10 33 -10 58 0 26 -5
57 -12 69 -7 13 -9 33 -4 48 4 15 6 32 4 37 -3 13 -11 212 -9 250 2 38 1 50
-4 162 -2 51 -9 98 -15 106 -8 10 -14 96 -17 270 -4 257 0 292 29 251 11 -15
14 -11 20 33 8 61 38 103 72 103 14 0 34 5 44 10 23 12 45 13 130 7 80 -7 127
12 110 43 -13 25 7 27 49 5 31 -15 73 -18 300 -16 86 1 149 -3 155 -9 16 -16
122 -12 135 4 12 15 80 12 113 -5 11 -6 22 -4 32 6 8 8 23 15 34 15 10 0 29
11 42 25 20 22 21 25 6 31 -9 3 -26 4 -38 1 -41 -11 -66 36 -33 63 12 10 16 9
21 -4 9 -24 29 -19 43 12 8 15 18 35 23 45 5 11 6 43 2 75 -4 32 -8 68 -9 82
-4 42 -4 43 -20 30 -9 -7 -13 -21 -10 -31 4 -11 2 -19 -2 -19 -15 0 -33 64
-33 118 0 28 -4 62 -10 76 -9 26 3 124 21 158 5 10 9 32 9 50 0 18 8 53 16 78
9 25 18 74 20 109 5 69 -7 94 -49 105 -22 5 -57 56 -57 81 0 20 45 46 58 33
15 -15 29 -2 34 31 2 17 1 28 -4 25 -16 -10 -30 7 -18 21 13 16 4 39 -11 29
-6 -3 -18 1 -28 11 -12 10 -27 14 -44 10 -16 -4 -34 -1 -50 9 -13 9 -37 16
-53 15 -27 -1 -138 20 -192 37 -21 6 -22 4 -16 -20 5 -22 3 -26 -14 -26 -12 0
-24 5 -27 10 -4 6 -16 8 -26 5 -11 -4 -25 -2 -32 4 -7 5 -53 12 -102 15 -49 3
-94 11 -99 16 -6 6 -40 10 -78 10 -37 0 -93 7 -125 15 -31 8 -84 15 -118 15
-33 0 -118 7 -190 15 -76 8 -221 14 -350 14 -347 -1 -527 5 -605 18 -40 8 -45
12 -53 43 -4 19 -8 44 -8 54 0 11 -8 26 -19 33 -17 12 -37 66 -32 87 2 4 -2
22 -7 40 -6 17 -12 145 -15 283 -3 139 -7 257 -10 262 -12 18 -16 140 -6 146
18 11 12 73 -9 84 -15 9 -20 27 -25 111 -6 72 -11 100 -21 100 -7 0 -15 -9
-18 -21 -5 -17 -12 -20 -49 -17 -36 2 -44 7 -52 29 -7 21 -5 30 11 46 20 20
20 20 31 -9 12 -33 32 -37 32 -7 0 63 -55 79 -104 29 -28 -29 -28 -31 -12 -49
16 -18 16 -20 -15 -35 -32 -16 -56 -13 -29 4 12 7 11 12 -4 29 -10 11 -15 25
-11 31 4 6 4 21 1 34 -7 29 -72 50 -125 41 -48 -8 -91 8 -91 35 0 13 7 20 18
20 10 0 27 7 38 15 16 13 17 16 4 25 -18 11 -28 12 -55 1z m-856 -290 c17 -11
6 -31 -18 -31 -25 0 -33 11 -20 27 13 15 19 16 38 4z m-94 -1105 c-3 -17 -9
-52 -12 -78 -3 -32 -10 -48 -19 -48 -8 0 -14 3 -14 8 -1 4 -5 27 -9 51 -8 40
-6 49 16 78 30 39 48 34 38 -11z m2898 -203 c-13 -2 -35 -2 -50 0 -16 2 -5 4
22 4 28 0 40 -2 28 -4z m-3698 -23 c4 -6 -15 -10 -49 -10 -31 0 -56 5 -56 10
0 6 22 10 49 10 28 0 53 -4 56 -10z m3913 -7 c-10 -2 -28 -2 -40 0 -13 2 -5 4
17 4 22 1 32 -1 23 -4z m384 -48 c0 -5 -5 -11 -11 -13 -6 -2 -11 4 -11 13 0 9
5 15 11 13 6 -2 11 -8 11 -13z m63 -8 c19 -15 13 -37 -10 -37 -16 0 -38 34
-28 44 9 9 17 8 38 -7z m90 -47 c0 -31 -31 -39 -40 -11 -8 26 2 43 23 39 11
-2 17 -13 17 -28z m-130 -40 c3 -5 -3 -10 -15 -10 -12 0 -18 5 -15 10 3 6 10
10 15 10 5 0 12 -4 15 -10z m-5816 -252 c11 -28 6 -38 -20 -38 -13 0 -19 7
-19 23 0 42 25 51 39 15z m125 -363 c16 -24 23 -95 9 -95 -17 0 -29 17 -46 59
-9 24 -14 48 -11 52 10 16 32 9 48 -16z m2746 -56 c52 -18 149 -68 196 -98 22
-15 55 -33 74 -39 38 -14 70 -39 70 -57 0 -6 13 -24 28 -41 49 -51 147 -187
171 -237 31 -65 52 -77 133 -77 65 0 71 -2 129 -45 34 -25 67 -45 75 -45 7 0
18 -10 25 -21 13 -25 -1 -39 -38 -39 -67 0 -118 -32 -233 -144 -63 -61 -128
-121 -145 -132 -35 -23 -91 -41 -158 -49 -36 -5 -64 -18 -105 -49 -62 -46
-128 -76 -168 -76 -14 0 -37 -6 -52 -14 -30 -15 -131 -31 -291 -46 -115 -11
-140 -5 -118 31 16 26 119 89 145 89 12 0 24 5 27 10 4 6 30 29 58 52 75 59
242 220 250 241 4 11 1 20 -7 23 -8 3 -117 1 -243 -4 -197 -7 -230 -7 -240 6
-7 8 -10 19 -6 25 3 5 7 46 9 92 1 46 10 100 20 124 16 40 18 42 48 35 17 -3
49 -12 71 -20 23 -8 83 -14 140 -14 55 -1 118 -4 140 -8 22 -5 52 -3 68 2 38
14 37 60 -3 114 -16 23 -30 44 -30 47 0 14 -88 123 -152 188 -80 81 -123 141
-113 156 3 6 23 11 43 12 20 0 53 7 72 14 37 15 55 14 110 -6z m-2180 -257 c0
-13 -12 -22 -22 -16 -10 6 -1 24 13 24 5 0 9 -4 9 -8z m-608 -44 c-15 -15 -26
-4 -18 18 5 13 9 15 18 6 9 -9 9 -15 0 -24z m1048 -82 c0 -7 10 -16 22 -20 19
-4 20 -8 10 -18 -11 -11 -17 -8 -32 12 -22 28 -25 40 -10 40 6 0 10 -6 10 -14z
m3706 -1482 c-3 -9 -6 -27 -6 -40 0 -15 -6 -24 -15 -24 -10 0 -15 10 -15 33 0
37 6 47 28 47 9 0 12 -6 8 -16z m49 -761 c-7 -27 -7 -28 -17 -6 -13 27 -2 61
14 45 6 -6 8 -22 3 -39z m-2245 -341 c-8 -45 -32 -102 -42 -102 -10 0 -10 2 1
53 6 23 13 60 16 82 6 35 8 38 20 22 8 -11 10 -30 5 -55z m1020 -543 c0 -10
-4 -19 -10 -19 -5 0 -10 12 -10 26 0 14 4 23 10 19 6 -3 10 -15 10 -26z
m-2186 -37 c10 -17 -11 -30 -47 -29 -41 1 -52 23 -14 30 39 7 56 7 61 -1z
m2184 -76 c3 -12 -1 -17 -10 -14 -7 3 -15 13 -16 22 -3 12 1 17 10 14 7 -3 15
-13 16 -22z m-2318 -73 c0 -20 -3 -24 -11 -16 -7 7 -9 19 -6 27 10 24 17 19
17 -11z m10 -83 c0 -11 -4 -20 -10 -20 -5 0 -10 9 -10 20 0 11 5 20 10 20 6 0
10 -9 10 -20z m3008 -2 c19 -19 14 -30 -10 -26 -13 2 -24 11 -26 21 -4 20 18
23 36 5z m-243 -48 c0 -7 -6 -15 -12 -17 -8 -3 -13 4 -13 17 0 13 5 20 13 18
6 -3 12 -11 12 -18z m-65 -5 c0 -8 -7 -15 -15 -15 -8 0 -15 7 -15 15 0 8 7 15
15 15 8 0 15 -7 15 -15z"/>
<path d="M3830 7891 c0 -18 17 -20 36 -6 18 14 18 14 -8 15 -16 0 -28 -4 -28
-9z"/>
<path d="M5210 7714 c0 -9 5 -14 12 -12 18 6 21 28 4 28 -9 0 -16 -7 -16 -16z"/>
<path d="M3627 7573 c-9 -16 -7 -103 2 -103 10 0 28 48 25 68 -1 6 -2 19 -3
27 -1 16 -17 20 -24 8z"/>
<path d="M1690 6512 c0 -20 27 -43 43 -36 24 9 21 19 -8 32 -31 14 -35 15 -35
4z"/>
<path d="M1592 6498 c5 -15 48 -24 48 -10 0 10 -23 22 -42 22 -5 0 -8 -6 -6
-12z"/>
<path d="M1407 5503 c-3 -5 -2 -15 2 -22 7 -10 10 -10 16 -1 4 6 3 16 -3 22
-5 5 -12 6 -15 1z"/>
<path d="M1436 5351 c-4 -6 -3 -19 3 -28 9 -17 10 -17 17 0 8 21 -10 45 -20
28z"/>
<path d="M6333 4945 c-3 -9 -3 -18 0 -21 9 -9 27 6 27 22 0 19 -19 18 -27 -1z"/>
<path d="M6453 2813 c-14 -5 -19 -93 -5 -93 18 1 31 18 37 51 7 37 -4 51 -32
42z"/>
<path d="M6500 2240 c0 -21 4 -30 13 -27 6 2 12 14 12 27 0 13 -6 25 -12 28
-9 2 -13 -7 -13 -28z"/>
<path d="M5066 2213 c-12 -12 -6 -33 9 -33 8 0 15 6 15 14 0 17 -14 28 -24 19z"/>
<path d="M2732 2144 c2 -15 9 -29 16 -32 10 -3 13 4 10 24 -2 15 -9 29 -16 32
-10 3 -13 -4 -10 -24z"/>
<path d="M5036 2154 c-7 -19 2 -37 15 -29 12 8 12 45 0 45 -5 0 -12 -7 -15
-16z"/>
<path d="M5340 1780 c0 -5 10 -10 23 -10 18 0 19 2 7 10 -19 13 -30 13 -30 0z"/>
</g>
</svg>
